<?xml version="1.0" standalone="no"?>
<!DOCTYPE svg PUBLIC "-//W3C//DTD SVG 20010904//EN"
 "http://www.w3.org/TR/2001/REC-SVG-20010904/DTD/svg10.dtd">
<svg version="1.0" xmlns="http://www.w3.org/2000/svg"
 width="304.000000pt" height="304.000000pt" viewBox="0 0 304.000000 304.000000"
 preserveAspectRatio="xMidYMid meet">
<metadata>
Created by potrace 1.11, written by Peter Selinger 2001-2013
</metadata>
<g transform="translate(0.000000,304.000000) scale(0.100000,-0.100000)"
fill="#000000" stroke="none">
<path d="M0 1520 l0 -1520 1520 0 1520 0 0 1520 0 1520 -1520 0 -1520 0 0
-1520z m1879 989 c30 -11 86 -27 125 -35 39 -8 85 -19 101 -24 17 -5 71 -19
120 -31 182 -42 258 -98 260 -191 l1 -40 120 -43 c122 -43 221 -91 262 -128
35 -32 28 -66 -33 -153 -31 -44 -65 -99 -76 -124 -38 -84 -44 -94 -77 -127
-42 -42 -82 -63 -144 -72 -63 -10 -121 1 -200 37 -198 92 -384 106 -534 42
-130 -56 -270 -205 -359 -380 -24 -47 -45 -70 -30 -32 4 9 16 49 26 87 11 39
40 124 64 191 55 148 59 202 18 234 -45 35 -113 23 -221 -39 -182 -104 -443
-313 -594 -475 -28 -31 -47 -45 -48 -36 0 9 4 20 9 25 5 6 25 48 46 95 92 206
290 459 485 620 30 25 64 53 74 63 11 9 23 17 28 17 15 0 68 83 68 105 0 13
-7 26 -16 29 -40 15 -158 -2 -229 -35 -99 -45 -245 -107 -245 -104 0 17 362
278 443 320 20 11 37 22 37 26 0 10 153 77 219 95 40 12 63 23 67 36 6 21 60
64 89 71 29 7 82 -2 144 -24z m-751 -527 c-18 -22 -67 -67 -108 -102 -87 -74
-419 -404 -473 -470 -20 -25 -60 -74 -89 -110 -71 -86 -193 -258 -243 -342
-22 -37 -43 -68 -48 -68 -4 0 -3 8 2 18 5 9 34 69 65 132 141 294 293 508 534
747 94 94 138 131 181 150 74 34 194 82 204 83 5 0 -6 -17 -25 -38z m267 -412
c16 -18 17 -25 5 -63 -15 -51 -61 -146 -101 -207 -26 -41 -121 -193 -238 -381
-24 -39 -66 -116 -94 -172 -28 -56 -52 -96 -55 -88 -9 26 48 344 84 467 40
140 121 298 187 367 52 55 124 94 173 96 11 1 29 -8 39 -19z m448 -81 c59 -32
91 -106 122 -284 42 -241 56 -288 128 -434 12 -24 51 -75 86 -113 35 -37 61
-68 57 -68 -3 0 -41 12 -83 26 -129 42 -232 99 -304 167 -90 86 -134 160 -164
282 -28 115 -31 172 -11 267 28 133 96 196 169 157z"/>
<path d="M1740 2410 c-12 -22 -60 -50 -85 -50 -9 0 -64 -19 -123 -42 -97 -37
-104 -42 -82 -51 109 -44 135 -70 133 -131 -2 -67 -58 -142 -193 -255 l-35
-29 86 23 c185 49 428 72 859 80 168 3 330 8 360 12 l55 6 -45 19 c-25 11 -88
33 -140 50 -52 17 -99 34 -105 38 -5 4 -48 20 -95 34 -115 36 -175 62 -237
102 -28 19 -54 34 -57 34 -6 0 -117 71 -126 80 -15 16 -140 100 -149 100 -6 0
-15 -9 -21 -20z"/>
<path d="M2136 2338 c10 -26 130 -98 163 -98 18 0 46 -7 64 -16 l32 -16 -30
30 c-16 16 -66 48 -111 71 -81 41 -128 53 -118 29z"/>
</g>
</svg>
